<?xml version="1.0" encoding="UTF-8" standalone="no"?>
<!-- Created with Inkscape (http://www.inkscape.org/) -->

<svg
   width="48.161499mm"
   height="16.652018mm"
   viewBox="0 0 48.161499 16.652018"
   version="1.1"
   id="svg5"
   xml:space="preserve"
   xmlns:inkscape="http://www.inkscape.org/namespaces/inkscape"
   xmlns:sodipodi="http://sodipodi.sourceforge.net/DTD/sodipodi-0.dtd"
   xmlns="http://www.w3.org/2000/svg"
   xmlns:svg="http://www.w3.org/2000/svg"><sodipodi:namedview
     id="namedview7"
     pagecolor="#ffffff"
     bordercolor="#000000"
     borderopacity="0.25"
     inkscape:showpageshadow="2"
     inkscape:pageopacity="0.0"
     inkscape:pagecheckerboard="0"
     inkscape:deskcolor="#d1d1d1"
     inkscape:document-units="mm"
     showgrid="false" /><defs
     id="defs2"><clipPath
       clipPathUnits="userSpaceOnUse"
       id="clipPath189"><path
         d="M 0,2277.053 H 1920 V 0 H 0 Z"
         id="path187" /></clipPath><clipPath
       clipPathUnits="userSpaceOnUse"
       id="clipPath247"><path
         d="M 0,2277.053 H 1920 V 0 H 0 Z"
         id="path245" /></clipPath></defs><g
     id="g8171"
     transform="translate(-243.21037,33.455169)"
     style="fill:#ffffff"><g
       id="g163"
       transform="matrix(0.35277776,0,0,-0.35277778,194.41008,760.86061)"
       style="fill:#ffffff"><g
         id="g165"
         style="fill:#ffffff"><g
           id="g171"
           style="fill:#ffffff"><g
             id="g173"
             style="fill:#ffffff"><path
               d="m 242.106,2247.27 c -2.132,-11.512 -6.243,-16.895 -10.508,-19.145 v 0 c 5.273,-1.4 10.272,1.439 10.861,1.791 v 0 l 0.575,0.344 v 17.01 c 0,0.149 -0.258,0.259 -0.503,0.259 v 0 c -0.2,0 -0.39,-0.073 -0.425,-0.259"
               style="fill:#ffffff;stroke:none"
               id="path181" /></g></g></g></g><g
       id="g183"
       transform="matrix(0.35277776,0,0,-0.35277778,194.41008,760.86061)"
       style="fill:#ffffff"><g
         id="g185"
         clip-path="url(#clipPath189)"
         style="fill:#ffffff"><g
           id="g191"
           transform="translate(218.324,2247.2695)"
           style="fill:#ffffff"><path
             d="m 0,0 c -0.077,0.415 -0.928,0.271 -0.928,0 v -17.75 c 0,-6.371 5.741,-11.536 12.822,-11.536 6.95,0 12.605,4.977 12.811,11.186 C 24.707,-18.092 5.564,-30.038 0,0"
             style="fill:#ffffff;fill-opacity:1;fill-rule:nonzero;stroke:none"
             id="path193" /></g><g
           id="g195"
           transform="translate(187.7167,2230.2808)"
           style="fill:#ffffff"><path
             d="m 0,0 v -11.489 h 9.59 v 6.22 C 8.3,-5.025 6.988,-4.631 5.68,-4.04 3.609,-3.104 1.718,-1.747 0,0"
             style="fill:#ffffff;fill-opacity:1;fill-rule:nonzero;stroke:none"
             id="path197" /></g></g></g><g
       id="g199"
       transform="matrix(0.35277776,0,0,-0.35277778,194.41008,760.86061)"
       style="fill:#ffffff"><g
         id="g201"
         style="fill:#ffffff"><g
           id="g207"
           style="fill:#ffffff"><g
             id="g209"
             style="fill:#ffffff"><path
               d="m 187.717,2247.238 v -15.859 c 1.793,-1.959 3.789,-3.452 5.992,-4.449 v 0 c 1.21,-0.546 2.424,-0.914 3.62,-1.149 v 0 h 4.083 c 7.924,0 12.964,4.146 12.964,10.729 v 0 c 0,6.584 -5.04,10.728 -12.964,10.728 v 0 z m 9.59,-7.396 h 3.495 c 2.641,0 3.901,-1.259 3.901,-3.332 v 0 c 0,-2.073 -1.26,-3.333 -3.901,-3.333 v 0 h -3.495 z"
               style="fill:#ffffff;stroke:none"
               id="path217" /></g></g></g></g><g
       id="g219"
       transform="matrix(0.35277776,0,0,-0.35277778,194.41008,760.86061)"
       style="fill:#ffffff"><g
         id="g221"
         style="fill:#ffffff"><g
           id="g227"
           style="fill:#ffffff"><g
             id="g229"
             style="fill:#ffffff"><path
               d="m 246.812,2247.238 v -25.574 c 0.943,2.702 2.529,5.29 4.754,7.514 v 0 c 3.445,3.445 7.893,5.477 12.525,5.722 v 0 c 2.173,0.118 4.261,-0.171 6.189,-0.826 v 0 c 2.128,1.328 3.232,3.342 3.232,5.727 v 0 c 0,4.309 -3.658,7.437 -11.5,7.437 v 0 z m 9.429,-6.705 h 4.47 c 2.154,0 3.129,-0.732 3.129,-2.113 v 0 c 0,-1.382 -0.975,-2.113 -3.129,-2.113 v 0 h -4.47 z"
               style="fill:#ffffff;stroke:none"
               id="path239" /></g></g></g></g><g
       id="g241"
       transform="matrix(0.35277776,0,0,-0.35277778,194.41008,760.86061)"
       style="fill:#ffffff"><g
         id="g243"
         clip-path="url(#clipPath247)"
         style="fill:#ffffff"><g
           id="g249"
           transform="translate(262.0113,2225.4968)"
           style="fill:#ffffff"><path
             d="M 0,0 H -5.771 V 4.47 H 0 C 2.113,4.47 3.169,3.698 3.169,2.235 3.169,0.772 2.113,0 0,0 M 9.318,7.334 C 7.135,8.314 4.693,8.78 2.12,8.647 -2.325,8.412 -6.597,6.458 -9.91,3.146 -12.764,0.292 -14.532,-3.178 -15.181,-6.705 H 0.813 c 7.843,0 12.028,2.885 12.028,7.843 0,2.726 -1.275,4.841 -3.523,6.196"
             style="fill:#ffffff;fill-opacity:1;fill-rule:nonzero;stroke:none"
             id="path251" /></g><g
           id="g253"
           transform="translate(236.1999,2242.5774)"
           style="fill:#ffffff"><path
             d="M 0,0 C 0,2.604 -1.667,4.814 -3.99,5.637 V -5.637 C -1.667,-4.815 0,-2.605 0,0"
             style="fill:#ffffff;fill-opacity:1;fill-rule:nonzero;stroke:none"
             id="path255" /></g><g
           id="g257"
           transform="translate(224.2303,2242.5774)"
           style="fill:#ffffff"><path
             d="M 0,0 C 0,-2.605 1.667,-4.815 3.99,-5.637 V 5.637 C 1.667,4.814 0,2.604 0,0"
             style="fill:#ffffff;fill-opacity:1;fill-rule:nonzero;stroke:none"
             id="path259" /></g><g
           id="g261"
           transform="translate(230.2151,2248.5623)"
           style="fill:#ffffff"><path
             d="m 0,0 c -0.701,0 -1.37,-0.127 -1.995,-0.348 v -11.274 c 0.625,-0.221 1.294,-0.348 1.995,-0.348 0.701,0 1.37,0.127 1.995,0.348 V -0.348 C 1.37,-0.127 0.701,0 0,0"
             style="fill:#ffffff;fill-opacity:1;fill-rule:nonzero;stroke:none"
             id="path263" /></g><g
           id="g265"
           transform="translate(159.1613,2234.5645)"
           style="fill:#ffffff"><path
             d="m 0,0 v -6.044 -0.702 l -14.141,5.996 c -0.276,0.125 -0.452,0.397 -0.452,0.698 l -0.338,4.924 c 0,0.165 0.051,0.316 0.136,0.437 z"
             style="fill:#ffffff;fill-opacity:1;fill-rule:nonzero;stroke:none"
             id="path267" /></g><g
           id="g269"
           transform="translate(174.089,2239.436)"
           style="fill:#ffffff"><path
             d="m 0,0 -0.334,-4.923 c 0,-0.301 -0.177,-0.573 -0.452,-0.698 l -14.142,-5.996 v 0.701 6.044 l 0.033,-0.011 14.825,5.206 C -0.026,0.228 0,0.118 0,0"
             style="fill:#ffffff;fill-opacity:1;fill-rule:nonzero;stroke:none"
             id="path271" /></g><g
           id="g273"
           transform="translate(144.9027,2231.6389)"
           style="fill:#ffffff"><path
             d="m 0,0 0.336,-2.991 c 0,-0.302 0.178,-0.575 0.453,-0.699 l 13.468,-5.994 v 0.699 3.29 0.723 L 1.018,0.723 C 0.521,0.897 0,0.527 0,0"
             style="fill:#ffffff;fill-opacity:1;fill-rule:nonzero;stroke:none"
             id="path275" /></g><g
           id="g277"
           transform="translate(173.4177,2231.6389)"
           style="fill:#ffffff"><path
             d="m 0,0 -0.336,-2.991 c 0,-0.302 -0.178,-0.575 -0.453,-0.699 l -13.468,-5.994 v 0.699 3.29 0.723 L -1.018,0.723 C -0.521,0.897 0,0.527 0,0"
             style="fill:#ffffff;fill-opacity:1;fill-rule:nonzero;stroke:none"
             id="path279" /></g><g
           id="g281"
           transform="translate(145.239,2226.0737)"
           style="fill:#ffffff"><path
             d="m 0,0 0.336,-3.327 c 0,-0.302 0.178,-0.576 0.453,-0.699 l 13.132,-5.994 v 0.699 3.29 c 0,0.326 0.307,0.615 0,0.723 L 1.018,0.723 C 0.521,0.897 0,0.527 0,0"
             style="fill:#ffffff;fill-opacity:1;fill-rule:nonzero;stroke:none"
             id="path283" /></g><g
           id="g285"
           transform="translate(173.0815,2226.0737)"
           style="fill:#ffffff"><path
             d="m 0,0 -0.336,-3.327 c 0,-0.302 -0.178,-0.576 -0.453,-0.699 l -13.132,-5.994 v 0.699 3.29 0.723 L -1.018,0.723 C -0.521,0.897 0,0.527 0,0"
             style="fill:#ffffff;fill-opacity:1;fill-rule:nonzero;stroke:none"
             id="path287" /></g><g
           id="g289"
           transform="translate(145.9115,2219.9209)"
           style="fill:#ffffff"><path
             d="m 0,0 0.336,-2.991 c 0,-0.302 0.178,-0.575 0.453,-0.699 l 12.46,-5.994 v 0.699 3.29 0.723 L 1.018,0.723 C 0.521,0.897 0,0.527 0,0"
             style="fill:#ffffff;fill-opacity:1;fill-rule:nonzero;stroke:none"
             id="path291" /></g><g
           id="g293"
           transform="translate(172.409,2219.9209)"
           style="fill:#ffffff"><path
             d="m 0,0 -0.336,-2.991 c 0,-0.302 -0.178,-0.575 -0.453,-0.699 l -12.46,-5.994 v 0.699 3.29 0.723 L -1.018,0.723 C -0.521,0.897 0,0.527 0,0"
             style="fill:#ffffff;fill-opacity:1;fill-rule:nonzero;stroke:none"
             id="path295" /></g><g
           id="g297"
           transform="translate(146.5839,2214.0852)"
           style="fill:#ffffff"><path
             d="m 0,0 0.336,-2.991 c 0,-0.301 0.178,-0.575 0.453,-0.699 l 11.787,-5.994 v 0.699 3.29 0.723 L 1.018,0.723 C 0.521,0.897 0,0.527 0,0"
             style="fill:#ffffff;fill-opacity:1;fill-rule:nonzero;stroke:none"
             id="path299" /></g><g
           id="g301"
           transform="translate(171.7365,2214.0852)"
           style="fill:#ffffff"><path
             d="m 0,0 -0.336,-2.991 c 0,-0.301 -0.178,-0.575 -0.453,-0.699 l -11.787,-5.994 v 0.699 3.29 0.723 L -1.018,0.723 C -0.521,0.897 0,0.527 0,0"
             style="fill:#ffffff;fill-opacity:1;fill-rule:nonzero;stroke:none"
             id="path303" /></g><g
           id="g305"
           transform="translate(179.6178,2242.7244)"
           style="fill:#ffffff"><path
             d="m 0,0 -20.117,-7.108 c -0.198,-0.069 -0.414,-0.069 -0.612,10e-4 l -19.949,7.108 c -0.811,0.289 -0.811,1.436 0,1.724 l 19.949,7.101 c 0.198,0.071 0.414,0.071 0.612,10e-4 L 0,1.726 C 0.814,1.439 0.814,0.288 0,0"
             style="fill:#ffffff;fill-opacity:1;fill-rule:nonzero;stroke:none"
             id="path307" /></g><g
           id="g309"
           transform="translate(161.0396,2244.4915)"
           style="fill:#ffffff"><path
             d="m 0,0 c 0,-0.813 -0.886,-1.473 -1.979,-1.473 -1.092,0 -1.978,0.66 -1.978,1.473 0,0.814 0.886,1.473 1.978,1.473 C -0.886,1.473 0,0.814 0,0"
             style="fill:#ffffff;fill-opacity:1;fill-rule:nonzero;stroke:none"
             id="path311" /></g><g
           id="g313"
           transform="translate(170.3535,2228.3008)"
           style="fill:#ffffff"><path
             d="m 0,0 -0.647,0.012 v 10.451 l -10.143,4.77 0.305,0.563 L 0,10.84 Z"
             style="fill:#ffffff;fill-opacity:1;fill-rule:nonzero;stroke:none"
             id="path315" /></g><g
           id="g317"
           transform="translate(170.0356,2227.1802)"
           style="fill:#ffffff"><path
             d="M 0,0 -1.935,1.935 0,3.869 1.935,1.935 Z"
             style="fill:#ffffff;fill-opacity:1;fill-rule:nonzero;stroke:none"
             id="path319" /></g></g></g><text
       xml:space="preserve"
       style="font-variant:normal;font-weight:500;font-stretch:normal;font-size:2.2878px;font-family:'Univia Pro Medium';-inkscape-font-specification:UniviaPro-Medium;writing-mode:lr-tb;fill:#ffffff;fill-opacity:1;fill-rule:nonzero;stroke:none;stroke-width:0.352778"
       id="text323"
       x="256.25717"
       y="-19.018915"><tspan
         x="256.25717 257.81516 258.43515 259.73691 260.61084 261.89453 262.74557 264.12054 265.04483 267.10156 268.40332 270.7117 272.12784 272.74783 273.93292 275.23468 275.77231 277.16559 278.48795 279.02557 280.65677 281.97913 283.16418 284.46594 285.64188"
         y="-19.018915"
         sodipodi:role="line"
         id="tspan321"
         style="fill:#ffffff;stroke-width:0.352778">Plataforma nica de Becas </tspan></text><text
       xml:space="preserve"
       style="font-variant:normal;font-weight:bold;font-stretch:normal;font-size:2.2878px;font-family:'Univia Pro Ultra';-inkscape-font-specification:UniviaPro-Ultra;writing-mode:lr-tb;fill:#ffffff;fill-opacity:1;fill-rule:nonzero;stroke:none;stroke-width:0.352778"
       id="text327"
       x="286.1795"
       y="-19.018915"><tspan
         x="286.1795 287.99603 289.75992"
         y="-19.018915"
         sodipodi:role="line"
         id="tspan325"
         style="fill:#ffffff;stroke-width:0.352778">UDG</tspan></text><text
       xml:space="preserve"
       style="font-size:2.14223px;fill:#ffffff;fill-opacity:1;stroke-width:0.178519"
       x="269.2655"
       y="-18.953245"
       id="text7552"><tspan
         sodipodi:role="line"
         id="tspan7550"
         style="fill:#ffffff;fill-opacity:1;stroke-width:0.178519"
         x="269.2655"
         y="-18.953245">U</tspan></text></g></svg>
