<?xml version="1.0" encoding="UTF-8"?>
<svg id="Capa_1" xmlns="http://www.w3.org/2000/svg" xmlns:xlink="http://www.w3.org/1999/xlink" version="1.1" viewBox="0 0 686.88 256.76">
  <!-- Generator: Adobe Illustrator 30.0.0, SVG Export Plug-In . SVG Version: 2.1.1 Build 123)  -->
  <defs>
    <style>
      .st0 {
        fill: #d7282f;
      }

      .st1, .st2 {
        fill: #44637f;
      }

      .st3 {
        fill: #8232ab;
      }

      .st4 {
        fill: #6282a3;
      }

      .st5 {
        fill: #00f5a9;
      }

      .st6 {
        fill: #ff2a96;
      }

      .st7 {
        fill: url(#Degradado_sin_nombre_2091);
      }

      .st8 {
        stroke: url(#Degradado_sin_nombre_13);
      }

      .st8, .st9 {
        fill: none;
        stroke-miterlimit: 10;
        stroke-width: 1.07px;
      }

      .st10 {
        fill: #fff;
      }

      .st11 {
        fill: url(#Degradado_sin_nombre_214);
      }

      .st12 {
        fill: url(#Degradado_sin_nombre_209);
      }

      .st2 {
        fill-rule: evenodd;
      }

      .st13 {
        fill: #00dbfc;
      }

      .st14 {
        fill: #ffcd00;
      }

      .st9 {
        stroke: url(#Degradado_sin_nombre_131);
      }
    </style>
    <linearGradient id="Degradado_sin_nombre_209" data-name="Degradado sin nombre 209" x1="496.46" y1="102.06" x2="531.49" y2="102.06" gradientUnits="userSpaceOnUse">
      <stop offset="0" stop-color="#6282a3"/>
      <stop offset="1" stop-color="#44637f"/>
    </linearGradient>
    <linearGradient id="Degradado_sin_nombre_2091" data-name="Degradado sin nombre 209" x1="402.89" y1="66.7" x2="402.89" y2="123.18" xlink:href="#Degradado_sin_nombre_209"/>
    <linearGradient id="Degradado_sin_nombre_214" data-name="Degradado sin nombre 214" x1="583.94" y1="150.98" x2="583.94" y2="72.65" gradientUnits="userSpaceOnUse">
      <stop offset="0" stop-color="#6282a3"/>
      <stop offset=".41" stop-color="#587897"/>
      <stop offset="1" stop-color="#44637f"/>
    </linearGradient>
    <linearGradient id="Degradado_sin_nombre_13" data-name="Degradado sin nombre 13" x1="187.53" y1="211.04" x2="187.53" y2="136.79" gradientUnits="userSpaceOnUse">
      <stop offset="0" stop-color="#44637f"/>
      <stop offset=".27" stop-color="#697f93" stop-opacity=".71"/>
      <stop offset=".76" stop-color="#aab0b7" stop-opacity=".2"/>
      <stop offset="1" stop-color="#c4c4c5" stop-opacity="0"/>
    </linearGradient>
    <linearGradient id="Degradado_sin_nombre_131" data-name="Degradado sin nombre 13" x1="1111.26" y1="1531.23" x2="1111.26" y2="1456.99" gradientTransform="translate(1298.79 1592.96) rotate(-180)" xlink:href="#Degradado_sin_nombre_13"/>
  </defs>
  <path class="st2" d="M115.55,73.2v-1.26h-1.95v1.26h-1.23v1.96h1.23v1.26h1.95v-1.26h1.23v-1.96h-1.23ZM116.49,74.85h-1.23v1.26h-1.38v-1.26h-1.23v-1.35h1.23v-1.26h1.38v1.26h1.23v1.35h0ZM102.72,73.2v-1.26h-1.96v1.26h-1.23v1.96h1.23v1.26h1.96v-1.26h1.23v-1.96h-1.23ZM103.67,74.85h-1.23v1.26h-1.38v-1.26h-1.23v-1.35h1.23v-1.26h1.38v1.26h1.23v1.35h0ZM115.55,60.71v-1.24h-1.95v1.24h-1.23v1.96h1.23v1.26h1.95v-1.26h1.23v-1.96h-1.23ZM116.49,62.39h-1.23v1.24h-1.38v-1.24h-1.23v-1.39h1.23v-1.24h1.38v1.24h1.23v1.39h0ZM102.72,60.71v-1.24h-1.96v1.24h-1.23v1.96h1.23v1.26h1.96v-1.26h1.23v-1.96h-1.23ZM103.67,62.39h-1.23v1.24h-1.38v-1.24h-1.23v-1.39h1.23v-1.24h1.38v1.24h1.23v1.39h0ZM101.62,104.27l.81-1.96.84,1.96-.84,1.94-.81-1.94h0ZM104.06,104.27l1.05-2.44,1.03,2.44-1.03,2.44-1.05-2.44h0ZM114.65,104.27l-.81-1.96-.83,1.96.83,1.94.81-1.94h0ZM112.21,104.27l-1.03-2.44-1.03,2.44,1.03,2.44,1.03-2.44h0ZM109.24,104.27l-1.19-2.81-1.23,2.81,1.23,2.83,1.19-2.83h0ZM134.79,176.96v-2.07h.15c.04.41.04.52.26.52.18,0,.68-.22.9-.29v-1.41c-.51-.2-.77-.28-.88-.28-.24,0-.26.3-.28.5h-.15v-1.26h.15c.07.33.28.41.79.61l3.65,1.39v.18l-3.49,1.41c-.72.31-.97.39-.94.7h-.15ZM136.35,175.02l1.62-.63-1.62-.61v1.24h0ZM139.12,171.67c-.02-.35-.02-.57-.62-.57h-2.9c-1.21,0-1.47-.72-1.47-1.37,0-.93.73-1.06.86-1.06.37,0,.53.26.53.46,0,.13-.15.43-.5.43-.26,0-.24-.15-.44-.15-.11,0-.2.11-.2.26,0,.44.37.44.57.44h3.71c.44,0,.44-.28.46-.63h.18v2.2h-.18ZM134.79,167.43v-2.04h.15c.04.39.04.52.26.52.18,0,.68-.22.9-.28v-1.41c-.51-.2-.77-.31-.88-.31-.24,0-.26.33-.28.52h-.15v-1.29h.15c.07.35.28.44.79.63l3.65,1.39v.17l-3.49,1.42c-.72.28-.97.39-.94.67h-.15ZM136.35,165.51l1.62-.63-1.62-.61v1.24h0ZM134.94,158.16c.04.37.09.56.48.56h3.23c.44,0,.44-.28.46-.56h.18v1.96c0,.35-.02,1.65-1.08,1.65-.75,0-.9-.72-.99-1h-.02c-.09.54-.42,1.22-1.19,1.22-.55,0-1.21-.46-1.23-1.78v-2.05h.15ZM135.41,159.73c-.29,0-.42.11-.42.37,0,.7.59.78,1.01.78.97,0,1.05-.55,1.08-.95v-.2h-1.67ZM137.27,159.73c0,.85.29,1,.97,1,.46,0,.86-.15.86-.67,0-.3-.18-.33-.35-.33h-1.47ZM134.79,156.86v-2.04h.15c.04.39.04.5.26.5.18,0,.68-.22.9-.28v-1.41c-.51-.2-.77-.28-.88-.28-.24,0-.26.3-.28.52h-.15v-1.28h.15c.07.33.28.41.79.61l3.65,1.42v.15l-3.49,1.41c-.72.31-.97.37-.94.7h-.15ZM136.35,154.92l1.62-.61-1.62-.61v1.22h0ZM134.79,151.46v-1.29l2.09-1.33v-.15h-1.32c-.53,0-.55.11-.61.54h-.15v-2.13h.15c.07.44.09.57.61.57h2.94c.59,0,.59-.22.62-.57h.18v2.02c0,.43-.07,1.79-1.19,1.79-.81,0-1.03-.65-1.14-1l-1.87,1.28c-.13.09-.15.17-.15.26h-.15ZM137.08,148.7c0,.8.18,1.13,1.01,1.13.68,0,.99-.26.99-.74,0-.35-.09-.37-.31-.39h-1.69ZM134.79,144.93v-2.24h.15c.04.44.07.61.61.61h3.54c-.04-.46-.07-1.09-1.14-1.24v-.17l1.34.02v3.79l-1.34.02v-.17c1.08-.15,1.1-.78,1.14-1.22h-3.54c-.57,0-.57.15-.61.61h-.15ZM76.71,141.54c.02.13.04.3.24.43l2.07,1.2h1.25c.55,0,.55-.13.61-.59h.15v2.2h-.15c-.07-.43-.07-.59-.61-.59h-.99l-2.22,1.15c-.07.04-.33.2-.35.52h-.2v-2.11h.2c0,.41.04.5.22.5.11,0,.26-.09.37-.15l1.56-.76-1.25-.7c-.09-.04-.44-.24-.61-.24-.24,0-.26.24-.29.52h-.2v-1.39h.2ZM81.04,149.28v2.05h-.15c-.04-.39-.07-.48-.26-.48s-.66.17-.9.26v1.44c.48.15.75.26.86.26.26,0,.29-.28.31-.52h.15v1.28h-.15c-.07-.33-.31-.41-.79-.61l-3.65-1.39v-.2l3.52-1.39c.7-.28.92-.39.92-.7h.15ZM79.46,151.22l-1.6.63,1.6.59v-1.22h0ZM77.88,155.27c-.46.13-1.23.5-1.23,1.24,0,.35.18.67.64.67.35,0,.5-.11.77-.65l.51-.94c.09-.2.48-.67,1.21-.67.62,0,1.38.39,1.38,1.56,0,.59-.22.87-.22,1.09,0,.11.15.15.22.17v.17h-1.62v-.17c.66-.13,1.43-.5,1.43-1.28s-.66-.81-.75-.81c-.44,0-.59.3-.81.72l-.2.41c-.57,1.09-1.14,1.09-1.43,1.09-.44,0-1.32-.2-1.32-1.39,0-.52.22-.8.22-1,0-.13-.11-.17-.22-.2v-.19h1.43v.17h0ZM80.89,163.64c-.07-.39-.11-.54-.55-.54h-3.16c-.44.35-.46.46-.46.52h-.2v-1.33l2.86-2.2h-2c-.42,0-.61.06-.66.59h-.2v-1.35h.2c.04.43.2.48.53.48h3.91v.19l-3.6,2.8h2.66c.48,0,.61-.13.68-.61h.15v1.44h-.15ZM76.52,168.86v-3.63h1.36v.13c-.94.17-1.12.61-1.12,1.46,0,.35.04.48.33.48h1.51c.02-.61-.13-.94-.97-1.02v-.17h2.24v.17c-.84.07-1.01.39-1.01,1.02h1.58c.31,0,.37-.13.37-.54,0-.61-.15-1.26-1.16-1.65v-.17l1.38.26v3.68h-.15c-.07-.37-.07-.54-.48-.54h-3.23c-.42,0-.44.26-.46.54h-.2ZM81.04,170.1v2.2h-.15c-.04-.33-.07-.59-.48-.59h-3.23c-.42,0-.44.31-.46.59h-.2v-2.2h.2c0,.28.02.59.46.59h3.23c.42,0,.44-.24.48-.59h.15ZM80.89,177.22q-.07-.33-.11-.39c-.04-.06-.13-.17-.5-.17h-2.96c-.55,0-.55.22-.59.57h-.2v-2.05c0-.5.13-1.67,1.25-1.67.22,0,.7.09.99.59.24.41.24.74.26,1.57h1.25c.53,0,.55-.11.61-.54h.15v2.11h-.15ZM78.8,175.65c0-.78-.2-1.04-1.01-1.04-.77,0-1.01.24-1.01.74,0,.2.06.28.22.3h1.8ZM115.27,147.22c-1.52,0-1.96-1.09-1.96-1.09,0,0,1.1.35,1.96.35.81,0,1.86-.35,1.86-.35,0,0-.31,1.09-1.86,1.09h0ZM115.27,153.29c-1.52,0-1.96-1.09-1.96-1.09,0,0,1.1.35,1.96.35.81,0,1.86-.35,1.86-.35,0,0-.31,1.09-1.86,1.09h0ZM113.51,156.64c-1.54,0-1.98-1.11-1.98-1.11,0,0,1.08.37,1.96.37.81,0,1.87-.37,1.87-.37,0,0-.31,1.11-1.84,1.11h0ZM103.27,156.64c-1.54,0-1.98-1.11-1.98-1.11,0,0,1.1.37,1.93.37s1.89-.37,1.89-.37c0,0-.31,1.11-1.84,1.11h0ZM99.18,152.2s1.08.35,1.91.35,1.91-.35,1.91-.35c0,0-.31,1.09-1.87,1.09s-1.95-1.09-1.95-1.09h0ZM98.83,146.13s1.08.35,1.91.35c.88,0,1.89-.35,1.89-.35,0,0-.29,1.09-1.85,1.09s-1.95-1.09-1.95-1.09h0ZM104.3,148.85c.86,0,1.91-.35,1.91-.35,0,0-.31,1.09-1.87,1.09s-1.96-1.09-1.96-1.09c0,0,1.08.35,1.91.35h0ZM108.04,146.48c.81,0,1.89-.35,1.89-.35,0,0-.33,1.09-1.87,1.09s-1.98-1.09-1.98-1.09c0,0,1.08.35,1.95.35h0ZM111.97,148.85c.83,0,1.87-.35,1.87-.35,0,0-.31,1.09-1.82,1.09s-1.98-1.09-1.98-1.09c0,0,1.05.35,1.93.35h0ZM118.45,146.15s.88-3.29-1.1-5.31c-2.02-2-4.22-1.57-4.22-1.57,0,0-1.56-2.89-5.12-2.89s-4.74,2.83-4.74,2.83c0,0-3.69-.15-5.19,2.68-1.47,2.85-.53,4.18-.53,4.18,0,0-1.89,1.59-1.6,4.55,0,0,.66,2.39,2.57,3.74,0,0,.22,2.85,3.43,3.72,2.13.61,4.74-.43,4.74-.43v23.06s-1.42,2.83-3.51,2.83c0,0,.33,1.35,3.51,1.35,0,0,.42,2.54,1.45,2.54,0,0,1.47-.54,1.47-2.54,0,0,2.81-.15,3.43-1.26,0,0-3.28-.98-3.28-3v-23.06s1.63.97,2.01.89c.37-.06,4.83.17,5.62-4.02,0,0,2.9-1.85,2.9-4.76,0-1.96-1.84-3.5-1.84-3.5h0ZM88.07,164.97l3.1-2.29,2.29,2.68-1.96,7.83s.18,0,.33-.15c.18-.2,1.05-1.81,3.27-2.46,0,0,0-1.48-.07-1.74,0,0-.77-1.81-.7-2.09.07-.28.22-2.28.55-2.81.35-.48.15-1.39.15-1.39,0,0,2.97-1.74,4.22-.94l1.36-.17.73.56s.26,1.11.09,1.17c-.15.04-1.14-.11-1.14.61s.72,1.07.88.22c.31-.11.7.17.7.17l.2.61-.31.85s-1.21.22-1.27.39c-.04.17,0,1.07,0,1.07,0,0,.86.78,1.95.04,1.1-.72,4.26-4.02,4.26-4.02v2.02l-1.71,1.5-.33,1.91-1.38.55-1.45,1.13-1.84,3.68-5.71,1.2-.55,4.52-1.89.94v1.35l1.89,1.52h-3.56v-3.24l.73-.78-.26-1.02-.64-.76.13-1.31-.33-2.33,2.15-8.46-.99-.96-.97.44.4,1.63-1.14,2.81-1.12-2.2-.04-2.28h0ZM98.66,162.95l.07-.67,1.1.17-1.16.5h0ZM97.38,166.38l.77-1.07v2.11l-.77-1.04h0ZM96.11,168.67l.77-1.07v2.11l-.77-1.04h0ZM96.11,164.08l.77-1.07v2.13l-.77-1.07h0ZM95.16,166.38l.79-1.07v2.11l-.79-1.04h0ZM95.27,175.89l2.59,1.54.24,2.42-2,.85v1.35l2.04,1.5h-3.75l.88-7.66h0ZM106.7,167.42v2l-1.87,2.06-1.63,1.04-1.45.39,1.41-2.68,1.49-.63,2.04-2.18h0ZM125.21,162.68l3.1,2.29-.07,2.28-1.12,2.2-1.16-2.81.4-1.63-.94-.44-.99.96,2.17,8.46-.35,2.33.11,1.31-.59.76-.29,1.02.72.78v3.24h-3.56l1.87-1.52v-1.35l-1.87-.94-.57-4.52-5.71-1.2-1.82-3.68-1.45-1.13-1.38-.55-.33-1.91-1.6-1.5v-2.02s3.03,3.31,4.15,4.02c1.12.74,1.96-.04,1.96-.04,0,0,.07-.89,0-1.07-.07-.17-1.3-.39-1.3-.39l-.26-.85.18-.61s.4-.28.7-.17c.18.85.88.48.88-.22s-.99-.56-1.16-.61c-.15-.06.13-1.17.13-1.17l.72-.56,1.32.17c1.3-.81,4.22.94,4.22.94,0,0-.15.91.18,1.39.33.52.5,2.52.55,2.81.04.28-.73,2.09-.73,2.09-.04.26-.04,1.74-.04,1.74,2.2.65,3.12,2.26,3.25,2.46.18.15.35.15.35.15l-1.93-7.83,2.28-2.68h0ZM116.54,162.45l1.12-.17.04.67-1.16-.5h0ZM118.18,167.43v-2.11l.79,1.07-.79,1.04h0ZM119.48,169.71v-2.11l.77,1.07-.77,1.04h0ZM119.48,165.14v-2.13l.77,1.07-.77,1.07h0ZM120.43,167.43l.77-1.04-.77-1.07v2.11h0ZM121.08,175.89l.9,7.66h-3.8l2.06-1.5v-1.35l-2-.85.22-2.42,2.61-1.54h0ZM109.76,167.37l1.94,2.23,1.49.63,1.38,2.68-1.43-.39-1.63-1.04-1.77-2.13v-1.98h0ZM137.6,190.25l-1.95-1.96-1.74,1.72-1.69-1.72-1.95,1.96,1.71,1.74-1.71,1.74,1.95,1.94,1.69-1.74,1.74,1.74,1.95-1.94-1.73-1.74,1.73-1.74h0ZM85.1,190.25l-1.91-1.96-1.76,1.72-1.71-1.72-1.93,1.96,1.74,1.74-1.74,1.74,1.93,1.94,1.71-1.74,1.76,1.74,1.91-1.94-1.71-1.74,1.71-1.74h0ZM139.67,126.37l-1.93-1.96-1.73,1.74-1.73-1.74-1.91,1.96,1.71,1.72-1.71,1.74,1.91,1.98,1.73-1.74,1.73,1.74,1.93-1.98-1.71-1.74,1.71-1.72h0ZM83.94,126.37l-1.93-1.96-1.74,1.74-1.73-1.74-1.93,1.96,1.74,1.72-1.74,1.74,1.93,1.98,1.73-1.74,1.74,1.74,1.93-1.98-1.73-1.74,1.73-1.72h0ZM108.7,95.98c4.74.43,5.78,4.24,5.78,4.24-3.2-2.5-5.78-2.29-5.78-2.29v-1.96h0ZM107.4,95.98v1.96s-2.59-.22-5.78,2.29c0,0,1.05-3.81,5.78-4.24h0ZM100.79,102.57v3.24c2.39,2.42,7.07,2.11,7.25,2.09.15.02,4.86.33,7.23-2.09v-3.24s-2-2.18-7.21-2.18h-.02c-5.23,0-7.25,2.18-7.25,2.18h0ZM101.97,108.95c-.13-.19.15-.37.15-.37,1.45,1.33,5.4,1.94,5.4,1.94v1.04s-.68.13-1.78-.2l-.57,1.04s.44.74,2.85.74h.02c2.42,0,2.83-.74,2.83-.74l-.59-1.04c-1.1.33-1.78.2-1.78.2v-1.04s3.95-.61,5.43-1.94c0,0,.26.18.15.37-.11.22-2.04,2.31-2.04,2.57v2.11c0,.26-1.51,1.74-4.02,1.74s-4.02-1.48-4.02-1.74v-2.11c0-.26-1.84-2.26-2.04-2.57h0ZM129.76,179.7v-44.88h-43.18v45.97c0,1.13.09,3.53,1.67,5.33,1.19,1.31,3.01,1.85,5.12,1.85h8.15c4.15,0,6.57,3.05,6.57,3.05,0,0,2.66-3.05,6.61-3.05h7.75c2.94,0,4.57-.63,5.71-1.92,1.65-1.83,1.6-4.42,1.6-6.35h0ZM131.67,121.17c-.35,1.35-1.71,4.48-6.9,6.33,0,0-2.57.39-4,.5-1.78.17-3.05,1.11-4.09,2-.9.74-2.63,2.39-2.94,2.65-.15.13-.33.28-.59.46h18.27v47.73c0,1.52-.31,4.09-2,6.01-1.25,1.39-3.4,2.78-6,2.78h-8.89c-3.41,0-6.48,3.27-6.48,3.27,0,0-3.12-3.27-6.06-3.27h-9.42c-1.69,0-4.06-1.17-5.36-2.48-1.87-1.96-2.31-4.57-2.31-5.81v-48.23h18.01c-.24-.17-.44-.33-.57-.46-.33-.26-2.06-1.92-2.94-2.65-1.05-.89-2.31-1.83-4.09-2-1.43-.11-4.02-.5-4.02-.5-5.21-1.85-6.55-4.98-6.92-6.33h-10.94v68.03c0,1.68.24,5.55,2.66,8.2,1.67,1.83,4.11,2.78,7.23,2.78h14.82c3.58,0,8.15,2.22,9.91,4.29,1.76-2.07,6.35-4.29,9.86-4.29h14.81c3.16,0,5.6-.96,7.27-2.78,2.37-2.66,2.66-6.53,2.66-8.2v-68.03h-10.98ZM133.3,119.8l-.57-.31.9-.26-1.93-1.61s2.07,0,1.89-.07c-.18-.07-2.33-2.35-2.33-2.35,0,0,2.5.29,2.33,0-.18-.3-2.29-2.31-2.11-2.17.15.11,2.04.33,2,.15-.07-.15-2-2.07-2-2.07,0,0,2.11.45,2,.24-.11-.24-2.22-2.37-2-2.26.22.11,1.93.52,1.93.52-.35-.46-1.27-2.02-1.27-2.02l18.14,9.07-1.25.22,1.98,1.89-2.11.11,2.06,1.87-2,.04,1.93,1.96s-2.11-.17-2,0c.13.17,2.24,2.11,2,2.07-.22-.04-2.18,0-2,.13.17.11,2.17,1.94,1.89,1.94s-2.2-.22-2-.11c.24.11,1.49,1.87,1.49,1.87l-6.3-3.31v-5.55h-10.67ZM85.98,119.8h.09l16.47-6.42s.48-1.2-.2-1.7c0,0-2-1.7-2.79-4.46,0,0-1.78-.52-1.78-2.46s1.47-2.41,1.47-2.41c0,0,1.62-8.03,8.76-8.07h.07c7.14.04,8.76,8.07,8.76,8.07,0,0,1.47.5,1.47,2.41s-1.78,2.46-1.78,2.46c-.81,2.76-2.79,4.46-2.79,4.46-.68.5-.24,1.7-.24,1.7l16.5,6.42h.04c-1.07-1.54-1.14-3.44-1.14-3.44v-11.18c0-3.31,2.44-3.98,3.41-4.35,1.19-.43,14.5-4.92,14.5-4.92-17.46-4.11-38.11-3.74-38.77-3.72-.66-.02-21.33-.39-38.81,3.72,0,0,13.31,4.48,14.5,4.92.97.37,3.41,1.04,3.41,4.35v11.18s-.07,1.87-1.14,3.44h0ZM72.1,125.37l-6.33,3.29s1.3-1.76,1.52-1.87c.24-.11-1.71.11-2,.11-.27,0,1.71-1.83,1.88-1.94.18-.13-1.75-.17-2-.13-.2.04,1.89-1.89,2-2.07.11-.17-2,0-2,0l1.95-1.96-2.02-.04,2.06-1.87-2.11-.11,2-1.89-1.3-.22,18.16-9.07s-.94,1.57-1.27,2.02c0,0,1.71-.41,1.95-.52.22-.11-1.89,2.02-2,2.26-.11.22,2-.24,2-.24,0,0-1.95,1.91-2,2.07-.09.17,1.85-.04,2-.15.15-.13-1.95,1.87-2.11,2.17-.18.29,2.33,0,2.33,0,0,0-2.17,2.28-2.33,2.35-.18.07,1.87.07,1.87.07l-1.91,1.61.86.26-.53.31h-10.7v5.57h0ZM104.87,77.27v-2.68h1.16v-4.26h-4.04v1.02h-4v-6.48h4.02v.98h4.02v-4.07h-1.16v-3.87h6.28v3.87h-1.16v4.07h4.04v-.98h4.04v6.48h-4.02v-1.02h-4.04v4.26h1.18v2.68c48.81.5,50.26,12.21,50.26,12.21v12.73c0,4.24-1.47,4.15-3.1,4.98-.84.41-13.73,4.55-13.73,4.55v.56l5.53,2.68c3.34,1.81,3.12,4.37,3.12,4.37v12.99c0,1.96-.26,2.2-1.67,3.29-1.32,1.04-3.78,2.98-3.78,2.98l12.3,8.05-8.48,2.79v9.2l-7.66-5.02.02,35.68c0,1.87-.35,6.03-3.03,9.01-1.93,2.15-4.72,3.24-8.26,3.24h-14.81c-4.85,0-9.86,4.57-9.86,4.57,0,0-5.27-4.57-9.91-4.57h-14.82c-3.51,0-6.28-1.09-8.24-3.24-2.68-2.98-3.01-7.14-3.01-9.01v-35.7l-7.71,5.05v-9.2l-8.48-2.79,12.3-8.05s-2.44-1.94-3.78-2.98c-1.41-1.09-1.67-1.33-1.67-3.29v-12.99s-.2-2.57,3.1-4.37l5.56-2.68v-.56s-12.87-4.13-13.73-4.55c-1.62-.83-3.1-.74-3.1-4.98v-12.73s1.47-11.71,50.3-12.21h0ZM158.71,89.84c.35.07-.37-.96-.66-1.04-.26-.13.79-.67.9-.78,0,0-7.34-9.14-50.89-9.14s-50.96,9.14-50.96,9.14c.09.11,1.14.65.86.78-.26.09-.99,1.11-.66,1.04.33-.04,1.3.39.95.57-.33.17-1.1,1.28-.95,1.24.18-.06,1.23.28.95.44-.29.17-1.27,1.39-1.06,1.33.22-.02,1.34.19,1.12.39-.22.26-1.3,1.48-1.05,1.48.22,0,1.67,0,1.21.28-.44.28-1.45,1.89-1.21,1.85.22-.06,1.78-.28,1.27.17-.5.41-.83,1.78-.83,1.78,12.5-9.46,49.75-8.86,50.36-8.83.59-.02,37.78-.63,50.28,8.83,0,0-.35-1.37-.81-1.78-.53-.46,1.06-.24,1.25-.17.24.04-.79-1.57-1.21-1.85-.46-.28,1.01-.28,1.21-.28.24,0-.84-1.22-1.06-1.48-.2-.2.9-.41,1.12-.39.22.06-.79-1.15-1.05-1.33-.26-.15.79-.5.92-.44.18.04-.59-1.07-.92-1.24-.35-.17.59-.61.92-.57h0ZM117.2,70.35h-2.13v-.8h-5.82v5.7h1.06v2h-4.55v-2h1.08v-5.7h-5.8v.8h-2.15v-4.39h2.31v.89h5.67v-5.81h-1.1v-2.13h4.55v2.13h-1.08v5.81h5.69v-.89h2.28v4.39h0ZM125.34,125.55c-1.62.87-6.04,1.33-6.04,1.33,0,0-2.46.26-4.83,2.92-1.69,1.89-4,3.28-6.41,3.24-2.37-.02-4.83-1.41-6.44-3.24-2.37-2.66-4.86-2.92-4.86-2.92,0,0-4.39-.46-6.04-1.33-1.87-.98-3.43-2.13-4.53-4.18l14.45-5.68-5.18,5.64,9.16-5.7-2.83,9.49,5.23-8.75,1.01,12.06h.02l1.01-12.06,5.21,8.75-2.86-9.49,9.2,5.7-5.21-5.64,14.45,5.68c-1.1,2.05-2.61,3.2-4.53,4.18ZM63.23,88.03l.08.2c-.2.09-.32.18-.36.3-.04.11,0,.32.12.63l1,2.71c.15.41.3.72.45.92.27.37.57.5.89.38.4-.15.59-.48.57-1-.02-.28-.11-.65-.27-1.11l-.91-2.48c-.11-.29-.22-.48-.33-.56-.11-.08-.27-.1-.48-.05l-.08-.21,1.16-.43.08.21c-.15.11-.24.21-.26.31-.03.09,0,.27.1.53l.95,2.59c.25.69.34,1.26.26,1.71-.08.45-.35.77-.81.94-.6.22-1.12.1-1.55-.38-.23-.25-.43-.61-.6-1.08l-1-2.71c-.11-.3-.21-.49-.29-.55-.08-.06-.22-.07-.41-.03l-.08-.21,1.78-.65ZM67.12,92.59c.2-.06.31-.16.34-.29.03-.12.01-.29-.05-.51l-1.12-3.93c-.24-.24-.39-.37-.45-.41-.05-.04-.12-.06-.19-.05l-.06-.21,1.14-.33,2.84,2.94h.03s-.69-2.44-.69-2.44c-.08-.28-.17-.47-.27-.57-.1-.1-.25-.14-.46-.1l-.06-.21,1.16-.33.06.21c-.16.09-.25.18-.29.27-.04.09-.02.26.05.51l1.39,4.89-.15.04-3.63-3.76h-.04s.92,3.26.92,3.26c.07.25.15.43.22.52.12.15.29.2.52.15l.06.21-1.22.35-.06-.21ZM70.94,91.53c.15-.04.26-.1.31-.16.09-.11.1-.3.04-.54l-.97-4.06c-.06-.25-.15-.4-.28-.46-.08-.04-.2-.04-.36-.01l-.05-.21,1.91-.46.05.21c-.17.05-.28.11-.33.17-.09.11-.1.29-.04.54l.97,4.06c.06.23.14.38.24.44.1.06.24.07.41.03l.05.21-1.91.45-.05-.21ZM73.73,85.15l.04.21c-.19.06-.32.11-.37.15-.05.05-.06.14-.03.28,0,.04.02.08.03.12.01.04.03.08.05.12l1.51,2.95h0s.14-3.01.14-3.01c0-.07,0-.13,0-.2,0-.11,0-.2-.02-.27-.03-.16-.08-.25-.15-.28-.07-.03-.2-.03-.4-.01l-.04-.21,1.17-.24.04.21c-.13.05-.22.13-.27.24-.05.11-.08.3-.09.55l-.25,5.22-.15.03-2.44-4.78c-.1-.19-.19-.33-.26-.4-.08-.08-.18-.11-.31-.1l-.04-.21,1.84-.37ZM76.96,90.45l-.04-.22c.16-.03.26-.09.32-.16.09-.1.11-.28.07-.52l-.68-4.12c-.04-.25-.12-.41-.24-.47-.07-.04-.18-.06-.35-.04l-.04-.22,3.19-.53.28,1.72-.13.02c-.16-.54-.34-.89-.55-1.07-.2-.17-.53-.22-.97-.15-.17.03-.27.07-.31.14s-.04.17-.02.33l.33,1.97c.32-.05.51-.17.6-.37.08-.2.11-.55.09-1.04l.14-.02.48,2.88-.14.02c-.12-.48-.26-.81-.41-.98-.15-.18-.39-.24-.7-.19l.34,2.06c.03.18.08.3.15.35.07.06.2.07.39.04.35-.06.62-.21.81-.46.19-.25.32-.67.4-1.28l.15-.02.07,1.81-3.23.53ZM80.59,89.63c.19-.04.31-.11.36-.21.06-.1.06-.31.02-.63l-.51-3.78c-.04-.33-.11-.54-.21-.63-.06-.06-.19-.09-.39-.09l-.03-.22,1.79-.24c.37-.05.68-.03.93.06.48.18.76.59.84,1.22.06.47,0,.85-.2,1.14-.15.22-.32.38-.51.46l1.51,2.27c.04.06.08.1.12.12.04.02.08.02.13.02l.03.2-1.16.16-1.66-2.5h0l.23,1.67c.04.3.1.5.18.59.08.1.22.14.41.12l.03.22-1.88.25-.03-.22ZM82.36,86.37c.14-.17.17-.53.1-1.07-.04-.33-.11-.59-.2-.77-.15-.31-.36-.45-.63-.41-.15.02-.24.06-.28.13s-.05.16-.03.29l.29,2.17c.36-.06.61-.17.75-.34ZM84.49,87.3l.16-.02c.16.63.35,1.08.58,1.35.23.27.47.39.73.36.25-.03.41-.15.5-.36.08-.21.11-.43.09-.65-.03-.26-.11-.46-.23-.61-.08-.1-.25-.22-.49-.37l-.39-.24c-.38-.24-.66-.48-.83-.73-.18-.25-.29-.57-.33-.97-.05-.42,0-.82.16-1.2.15-.39.43-.6.82-.64.2-.02.4,0,.6.08.2.07.31.11.34.11.06,0,.1-.04.12-.1s.03-.13.03-.22l.17-.02.21,1.87-.16.02c-.12-.42-.29-.78-.51-1.08-.22-.29-.46-.42-.72-.39-.18.02-.32.12-.41.29-.09.17-.12.37-.1.59.03.27.1.47.22.59.11.12.36.3.73.53l.45.27c.2.12.36.26.49.43.24.3.39.68.44,1.14.05.43-.02.85-.19,1.26-.18.41-.51.64-.99.69-.11.01-.22,0-.34-.01-.12-.02-.23-.06-.35-.11l-.11-.05s-.05-.02-.08-.02c-.02,0-.04,0-.06,0-.06,0-.09.04-.11.09-.02.05-.03.13-.03.23l-.16.02-.24-2.12ZM87.67,88.76c.16-.02.27-.06.33-.12.1-.1.14-.28.12-.53l-.4-4.16c-.02-.25-.09-.42-.21-.49-.07-.05-.19-.07-.36-.06l-.02-.22,1.95-.18.02.22c-.17.03-.29.07-.35.13-.1.1-.14.27-.12.53l.4,4.16c.02.24.08.4.18.47.1.07.23.1.4.08l.02.22-1.95.18-.02-.22ZM89.8,88.55c.14-.02.24-.06.3-.12.1-.1.14-.26.13-.49l-.33-4.24c-.02-.22-.08-.37-.19-.45-.06-.05-.17-.07-.32-.08l-.02-.22,1.71-.13c.69-.05,1.24.19,1.64.72.37.49.59,1.17.66,2.04.06.78-.05,1.45-.34,2.02-.33.64-.81.98-1.45,1.03l-1.77.14-.02-.22ZM91.22,88.25c.04.08.13.11.25.1.33-.03.59-.23.77-.6.18-.38.24-1.08.16-2.1-.05-.61-.14-1.12-.29-1.55-.24-.69-.58-1.02-1.02-.98-.14.01-.24.07-.27.16-.02.06-.03.18-.02.36l.33,4.23c.02.18.05.3.09.38ZM93.83,88.24c.13-.02.24-.12.31-.3.05-.11.11-.36.18-.74l.97-4.79h.16s1.51,4.44,1.51,4.44c.17.5.29.82.37.96.08.14.18.21.31.2v.22s-1.8.1-1.8.1v-.22c.17-.02.29-.05.34-.09.06-.04.08-.13.07-.28,0-.07-.02-.17-.06-.3-.02-.08-.05-.18-.09-.29l-.17-.51-1.26.07c-.06.35-.1.57-.12.68-.04.22-.05.39-.05.49,0,.12.07.21.18.26.07.03.16.04.29.03v.22s-1.13.07-1.13.07v-.22ZM95.83,86.3l-.65-1.96h-.05s-.39,2.03-.39,2.03l1.09-.06ZM97.83,88.01c.14-.02.24-.05.3-.1.11-.09.15-.25.14-.48l-.16-4.25c0-.22-.07-.37-.17-.46-.06-.05-.17-.08-.32-.09v-.22s1.7-.07,1.7-.07c.69-.03,1.23.24,1.61.79.35.5.54,1.19.58,2.06.03.78-.11,1.45-.42,2-.35.62-.85.95-1.49.97l-1.77.07v-.22ZM99.26,87.77c.04.08.12.11.24.11.33-.01.6-.2.8-.57.2-.37.28-1.07.24-2.09-.02-.61-.1-1.13-.23-1.56-.21-.7-.54-1.04-.98-1.02-.14,0-.24.06-.28.15-.03.06-.04.18-.03.36l.16,4.24c.01.18.04.3.08.38ZM103.24,87.82c.14-.02.24-.05.3-.1.11-.09.16-.25.16-.48l-.06-4.26c0-.22-.06-.37-.16-.46-.06-.05-.16-.08-.31-.1v-.22s1.71-.02,1.71-.02c.69,0,1.22.27,1.59.83.34.51.51,1.2.53,2.07.01.78-.14,1.44-.47,1.99-.37.61-.87.93-1.51.94l-1.77.02v-.22ZM104.68,87.61c.04.08.12.12.24.11.33,0,.6-.19.81-.55s.31-1.06.29-2.08c0-.61-.07-1.13-.19-1.57-.2-.7-.52-1.05-.96-1.04-.14,0-.24.05-.28.15-.03.06-.04.18-.04.36l.06,4.24c0,.18.03.31.07.38ZM107.28,87.98v-.22c.16,0,.28-.04.34-.1.1-.09.16-.26.16-.51v-4.18c.01-.25-.04-.42-.15-.51-.06-.05-.17-.09-.34-.1v-.22h3.23s0,1.75,0,1.75h-.14c-.07-.56-.19-.94-.36-1.14-.17-.2-.48-.31-.93-.31-.17,0-.28.03-.33.08-.05.06-.07.16-.07.33v2c.31,0,.53-.08.65-.27.11-.18.2-.52.26-1.01h.14v2.91h-.15c-.04-.49-.12-.84-.24-1.04-.12-.2-.34-.3-.66-.3v2.09c0,.18.02.31.08.37.06.07.19.1.38.1.36,0,.65-.1.88-.32.23-.21.43-.61.61-1.2h.16l-.23,1.79h-3.28ZM113.18,82.99c.39-.59.87-.88,1.45-.87.23,0,.46.08.69.22.23.14.37.21.43.21.06,0,.11-.03.15-.09.04-.06.07-.16.1-.29h.16s-.05,2.02-.05,2.02h-.14c-.12-.45-.25-.79-.39-1.05-.25-.47-.54-.71-.87-.72-.36,0-.63.22-.81.7-.18.48-.28,1.16-.3,2.03-.02.72.04,1.36.18,1.93.14.57.43.86.87.87.24,0,.4-.07.49-.22.05-.09.08-.22.08-.39l.02-.91c0-.26-.04-.43-.14-.52-.07-.05-.2-.08-.41-.1v-.22s1.93.05,1.93.05v.22c-.2,0-.33.06-.39.17-.06.11-.1.31-.11.61l-.03,1.1c-.13.11-.33.23-.61.34-.28.11-.59.16-.94.15-.62-.02-1.11-.33-1.47-.94-.33-.57-.49-1.28-.47-2.14.02-.86.22-1.58.59-2.16ZM118.87,82.38v.22c-.23,0-.37.05-.45.14-.08.09-.12.3-.14.63l-.13,2.89c-.02.44,0,.78.06,1.02.1.45.33.68.67.7.43.02.73-.21.91-.7.1-.26.15-.64.18-1.13l.12-2.64c.01-.31-.01-.52-.08-.64-.07-.12-.21-.2-.42-.23v-.22s1.24.06,1.24.06v.22c-.19.04-.31.1-.37.18-.06.07-.1.25-.11.53l-.12,2.76c-.03.73-.17,1.29-.42,1.68-.25.39-.62.57-1.11.55-.64-.03-1.07-.34-1.28-.95-.11-.32-.16-.73-.14-1.22l.13-2.89c.01-.32,0-.53-.06-.61-.05-.09-.17-.15-.37-.19v-.22s1.9.08,1.9.08ZM120.73,88.08c.14,0,.25-.09.34-.26.06-.11.15-.34.27-.71l1.54-4.63h.16s.97,4.61.97,4.61c.11.52.19.85.25,1s.15.23.28.23v.22s-1.83-.11-1.83-.11v-.22c.2,0,.32-.02.38-.05.06-.03.09-.12.1-.27,0-.07,0-.17-.02-.31-.01-.08-.03-.18-.06-.3l-.11-.53-1.26-.08c-.1.34-.17.56-.2.66-.06.22-.1.38-.1.48,0,.12.04.22.14.28.06.04.16.06.29.07v.22s-1.16-.07-1.16-.07v-.22ZM122.95,86.4l-.41-2.03h-.05s-.63,1.96-.63,1.96l1.09.07ZM124.74,88.33c.14,0,.24-.02.31-.07.12-.08.18-.23.2-.46l.35-4.24c.02-.22-.02-.38-.12-.47-.06-.06-.16-.1-.3-.13l.02-.22,1.71.14c.69.06,1.19.38,1.51.98.29.54.39,1.25.32,2.11-.06.78-.29,1.42-.66,1.94-.42.58-.95.84-1.59.79l-1.77-.15.02-.22ZM126.19,88.26c.03.08.11.13.23.14.33.03.62-.13.86-.47.24-.34.41-1.02.49-2.05.05-.61.04-1.13-.04-1.58-.13-.72-.41-1.1-.85-1.13-.15-.01-.24.03-.3.12-.03.06-.06.18-.07.35l-.35,4.23c0,.18,0,.31.03.39ZM128.75,88.66c.14,0,.25-.08.35-.25.06-.1.16-.34.3-.7l1.73-4.57.16.02.77,4.64c.09.52.16.86.21,1.01s.14.23.27.24l-.02.22-1.81-.19.02-.22c.18,0,.3,0,.37-.03.06-.03.1-.12.11-.27,0-.07,0-.17-.01-.31-.01-.08-.02-.18-.04-.3l-.09-.53-1.25-.13c-.12.33-.19.55-.23.65-.07.22-.11.37-.12.47-.01.12.03.22.13.29.06.04.15.06.28.08l-.02.22-1.14-.12.02-.22ZM131.03,87.08l-.33-2.04h-.05s-.71,1.93-.71,1.93l1.09.11ZM132.76,89.08c.15.01.26,0,.34-.05.12-.08.2-.24.23-.49l.53-4.14c.03-.25,0-.42-.09-.52-.06-.06-.16-.11-.32-.14l.03-.22,1.94.25-.03.22c-.23-.02-.39.01-.47.09-.09.08-.15.28-.19.62l-.52,4.04c-.02.19,0,.32.05.39.06.07.18.12.37.14.33.04.63-.04.89-.23.26-.2.51-.62.76-1.25l.16.02-.47,1.91-3.22-.41.03-.22ZM136.46,89.55c.14,0,.26-.07.37-.23.07-.1.18-.33.34-.68l1.95-4.48.15.02.54,4.67c.06.52.11.86.16,1.02.05.16.13.24.26.26l-.03.22-1.79-.28.03-.22c.18.02.31.01.37-.02.06-.03.11-.11.13-.26.01-.07.01-.17,0-.31,0-.08-.02-.18-.03-.3l-.06-.54-1.24-.19c-.13.33-.22.54-.26.64-.08.21-.13.37-.15.47-.02.12.02.22.12.29.06.04.15.07.28.09l-.03.22-1.13-.18.03-.22ZM138.82,88.08l-.23-2.06h-.05s-.81,1.89-.81,1.89l1.08.17ZM143.99,85.13l-.04.21c-.2-.01-.34.02-.43.09-.08.07-.16.27-.22.6l-.67,3.66c-.11.6-.3,1.05-.58,1.35-.28.3-.61.41-.99.34-.27-.05-.47-.2-.6-.46-.12-.26-.16-.51-.11-.77.04-.21.11-.37.21-.47.1-.1.21-.15.31-.13.11.02.19.09.24.22.05.13.06.27.03.43-.02.14-.07.26-.14.38-.07.12-.1.18-.11.21-.02.08,0,.15.03.2s.08.08.14.09c.16.03.29-.03.38-.19.05-.09.1-.26.14-.49l.87-4.72c.05-.26.02-.43-.07-.54-.06-.06-.18-.12-.37-.16l.04-.22,1.94.36ZM143.13,90.67c.14.02.26-.05.38-.2.08-.1.2-.32.38-.66l2.23-4.34.15.03.25,4.69c.03.53.06.87.1,1.03.04.16.12.25.24.27l-.05.21-1.77-.39.05-.21c.18.03.3.03.37,0,.06-.02.11-.11.14-.25.01-.07.02-.17.02-.31,0-.08,0-.18,0-.3l-.03-.54-1.23-.27c-.15.32-.25.52-.3.62-.1.21-.15.36-.18.46-.03.12,0,.22.1.3.06.04.14.08.27.11l-.05.21-1.12-.25.05-.21ZM145.57,89.35l-.1-2.07h-.05s-.92,1.83-.92,1.83l1.07.23ZM147.01,91.52c.19.04.33.02.42-.06s.18-.26.26-.57l1.02-3.68c.09-.32.11-.54.05-.66-.03-.08-.14-.16-.32-.23l.06-.21,1.74.48c.36.1.64.24.83.42.37.36.47.84.3,1.45-.12.45-.34.78-.63.97-.23.15-.45.22-.65.22l.5,2.68c.01.07.03.12.06.15.03.03.06.05.11.07l-.05.2-1.13-.31-.54-2.95h0l-.45,1.63c-.08.29-.1.5-.07.62s.15.21.33.27l-.06.21-1.83-.5.06-.21ZM149.92,89.22c.19-.1.36-.42.51-.94.09-.32.13-.58.12-.79-.01-.34-.15-.55-.42-.63-.14-.04-.25-.04-.31,0-.06.04-.11.13-.14.25l-.58,2.12c.36.09.63.08.82-.02ZM150.81,92.56c.13.03.26-.02.4-.15.09-.09.24-.29.46-.61l2.77-4.02.15.05-.36,4.69c-.04.53-.05.87-.04,1.03.02.16.08.26.21.3l-.07.21-1.71-.61.07-.21c.18.05.3.07.36.06.07-.02.12-.09.18-.23.02-.06.04-.16.06-.31.01-.08.02-.18.03-.3l.04-.54-1.18-.43c-.19.29-.32.49-.38.58-.12.19-.2.34-.23.43-.04.12-.02.22.06.31.05.05.13.1.25.14l-.07.21-1.08-.39.07-.21ZM153.4,91.56l.17-2.06-.04-.02-1.15,1.71,1.03.37Z"/>
  <g>
    <path class="st12" d="M529.73,125.7l1.76-1.05v-52.1c0-.83-2.61-1.27-2.84,0-6.53,35.26-19.12,51.74-32.18,58.63,16.15,4.29,31.46-4.41,33.26-5.49Z"/>
    <path class="st4" d="M455.81,72.56c-.24-1.27-2.84-.83-2.84,0v54.36c0,19.51,17.58,35.33,39.27,35.33s38.61-15.24,39.24-34.26c0-.03-58.62,36.56-75.66-55.43Z"/>
  </g>
  <g>
    <path class="st4" d="M362.07,124.59v35.19h29.37v-19.05c-3.95-.75-7.97-1.95-11.98-3.76-6.34-2.87-12.13-7.02-17.4-12.37Z"/>
    <path class="st7" d="M380.42,134.85c3.71,1.68,7.42,2.8,11.09,3.52h12.5c24.27,0,39.7-12.69,39.7-32.86s-15.43-32.86-39.7-32.86h-41.94v48.57c5.49,6,11.6,10.57,18.35,13.62ZM391.44,95.3h10.7c8.09,0,11.95,3.86,11.95,10.2s-3.86,10.21-11.95,10.21h-10.7v-20.41Z"/>
  </g>
  <g>
    <path class="st11" d="M557.62,127.96c10.55-10.55,24.17-16.77,38.36-17.52,6.65-.36,13.05.52,18.95,2.53,6.52-4.07,9.9-10.23,9.9-17.54,0-13.19-11.2-22.78-35.22-22.78h-46.55v78.33c2.88-8.28,7.74-16.2,14.56-23.01ZM571.93,93.19h13.69c6.6,0,9.58,2.24,9.58,6.47s-2.99,6.47-9.58,6.47h-13.69v-12.94Z"/>
    <path class="st4" d="M618.14,116.78c-6.69-3-14.16-4.43-22.04-4.02-13.61.72-26.7,6.7-36.84,16.85-8.74,8.74-14.16,19.37-16.14,30.17h48.98c24.02,0,36.84-8.84,36.84-24.02,0-8.35-3.91-14.83-10.79-18.98ZM589.61,139.24h-17.67v-13.69h17.67c6.47,0,9.71,2.36,9.71,6.84s-3.23,6.84-9.71,6.84Z"/>
  </g>
  <g>
    <line class="st8" x1="187.53" y1="136.79" x2="187.53" y2="211.04"/>
    <line class="st9" x1="187.53" y1="135.98" x2="187.53" y2="61.73"/>
  </g>
  <g>
    <path class="st0" d="M510.56,86.93c0-7.98-5.11-14.75-12.22-17.26v34.53c7.11-2.52,12.22-9.29,12.22-17.26Z"/>
    <path class="st14" d="M473.9,86.93c0,7.98,5.11,14.75,12.22,17.26v-34.53c-7.11,2.52-12.22,9.29-12.22,17.26Z"/>
    <path d="M492.23,68.6c-2.15,0-4.2.39-6.11,1.07v34.53c1.91.68,3.96,1.07,6.11,1.07s4.2-.39,6.11-1.07v-34.53c-1.91-.68-3.96-1.07-6.11-1.07Z"/>
  </g>
  <g>
    <path class="st1" d="M274.61,111.47v20.66l-43.31-18.36c-.84-.38-1.38-1.22-1.38-2.14l-1.04-15.08c0-.51.16-.97.42-1.34l45.31,16.26Z"/>
    <path class="st1" d="M320.33,96.55l-1.02,15.08c0,.92-.54,1.76-1.38,2.14l-43.31,18.36v-20.66l.1.03,45.4-15.94c.13.29.21.63.21.99Z"/>
    <path class="st5" d="M230.95,120.43l1.03,9.16c0,.92.54,1.76,1.39,2.14l41.25,18.36v-12.22c0-1,0-.89,0-2.21l-40.55-17.44c-1.52-.53-3.12.6-3.12,2.21Z"/>
    <path class="st5" d="M318.28,120.43l-1.03,9.16c0,.92-.54,1.76-1.39,2.14l-41.25,18.36s0-.44,0-2.14v-10.08s0-.7,0-2.21l40.55-17.44c1.52-.53,3.12.6,3.12,2.21Z"/>
    <path class="st13" d="M231.98,137.47l1.03,10.19c0,.92.54,1.76,1.39,2.14l40.22,18.36v-12.22c0-1,.94-1.88,0-2.21l-39.52-18.47c-1.52-.53-3.12.6-3.12,2.21Z"/>
    <path class="st13" d="M317.25,137.47l-1.03,10.19c0,.92-.54,1.76-1.39,2.14l-40.22,18.36s0-.44,0-2.14v-10.08c0-1,0,0,0-2.21l39.52-18.47c1.52-.53,3.12.6,3.12,2.21Z"/>
    <path class="st3" d="M234.04,156.31l1.03,9.16c0,.92.54,1.76,1.39,2.14l38.16,18.36v-12.22c0-1,0-2.21,0-2.21l-37.46-17.44c-1.52-.53-3.12.6-3.12,2.21Z"/>
    <path class="st3" d="M315.19,156.31l-1.03,9.16c0,.92-.54,1.76-1.39,2.14l-38.16,18.36s0-.44,0-2.14v-10.08c0-1,0-2.21,0-2.21l37.46-17.44c1.52-.53,3.12.6,3.12,2.21Z"/>
    <path class="st6" d="M236.09,174.19l1.03,9.16c0,.92.54,1.76,1.39,2.14l36.1,18.36v-12.22q0-1,0-2.21l-35.4-17.44c-1.52-.53-3.12.6-3.12,2.21Z"/>
    <path class="st6" d="M313.13,174.19l-1.03,9.16c0,.92-.54,1.76-1.39,2.14l-36.1,18.36c0-1.53,0-.44,0-2.14v-10.08c0-1,0,0,0-2.21l35.4-17.44c1.52-.53,3.12.6,3.12,2.21Z"/>
    <path class="st4" d="M337.27,86.48l-61.61,21.77c-.61.21-1.27.21-1.87,0l-61.1-21.77c-2.48-.88-2.48-4.4,0-5.28l61.1-21.75c.61-.22,1.27-.22,1.87,0l61.61,21.75c2.49.88,2.49,4.41,0,5.29Z"/>
    <ellipse class="st10" cx="274.31" cy="81.06" rx="6.06" ry="4.51"/>
    <polygon class="st10" points="308.89 130.65 306.91 130.61 306.91 98.6 275.85 84 276.78 82.27 308.89 97.45 308.89 130.65"/>
    <rect class="st10" x="303.73" y="123.97" width="8.38" height="8.38" transform="translate(180.81 -180.2) rotate(45)"/>
  </g>
  <g>
    <path class="st4" d="M335.31,170.3c.83.66,1.25,1.99,1.25,3.95,0,1.67-.26,2.72-.79,3.46-.26.36-.66.64-1.15.83-.97.38-2.07.48-3.95.48h-2.48v5.29c0,.24-.06.3-.3.3h-1.97c-.24,0-.3-.06-.3-.3v-14.56c0-.22.06-.26.3-.28,1.41-.1,3-.16,4.75-.16,2.26,0,3.81.34,4.65.99ZM328.18,171.53v5.44h2.24c1.57,0,2.21-.04,2.82-.42.62-.4.73-.99.73-2.25,0-1.17-.24-1.93-.7-2.26s-1.41-.52-2.86-.52h-2.24Z"/>
    <path class="st4" d="M341.01,169.41c.2,0,.3.1.3.3v14.6c0,.2-.1.3-.3.3h-1.81c-.2,0-.3-.1-.3-.3v-14.6c0-.2.1-.3.3-.3h1.81Z"/>
    <path class="st4" d="M352.71,176.78v6.91c0,.3-.14.48-.4.58-1.01.3-2.5.44-4.47.44-1.53,0-2.6-.22-3.24-.64-.64-.44-.95-1.33-.95-2.68,0-2.4,1.17-3.16,3.77-3.16h2.88v-1.03c0-1.11-.66-1.59-2.25-1.59h-3.26c-.24,0-.3-.06-.3-.3v-1.21c0-.24.06-.26.28-.32.93-.18,2.03-.26,3.28-.26,3.4,0,4.65,1.03,4.65,3.26ZM350.3,179.96h-2.74c-1.09,0-1.53.36-1.53,1.33,0,1.11.5,1.41,2.01,1.41.95,0,1.71-.08,2.26-.22v-2.52Z"/>
    <path class="st4" d="M358.29,170.58c.22-.06.34.02.34.28v2.78h1.97c.22,0,.32.1.32.3v1.25c0,.22-.1.32-.32.32h-1.97v6.06c0,.88.26,1.05,1.23,1.05h.87c.22,0,.34.1.34.28v1.31c0,.2-.1.32-.3.36-.52.1-.99.14-1.41.14-.79,0-1.11,0-1.77-.16-.87-.24-1.31-.81-1.39-2.26v-6.77h-1.13c-.22,0-.32-.1-.32-.32v-1.25c0-.2.1-.3.32-.3h1.13v-2.28c0-.18.1-.28.28-.32l1.81-.46Z"/>
    <path class="st4" d="M371.6,176.78v6.91c0,.3-.14.48-.4.58-1.01.3-2.5.44-4.47.44-1.53,0-2.6-.22-3.24-.64-.64-.44-.95-1.33-.95-2.68,0-2.4,1.17-3.16,3.78-3.16h2.88v-1.03c0-1.11-.66-1.59-2.25-1.59h-3.26c-.24,0-.3-.06-.3-.3v-1.21c0-.24.06-.26.28-.32.93-.18,2.03-.26,3.28-.26,3.4,0,4.65,1.03,4.65,3.26ZM369.19,179.96h-2.74c-1.09,0-1.53.36-1.53,1.33,0,1.11.5,1.41,2.01,1.41.95,0,1.71-.08,2.27-.22v-2.52Z"/>
    <path class="st4" d="M380.24,169.49c.2.04.3.16.3.36v1.25c0,.2-.1.3-.32.3h-1.31c-1.05,0-1.41.14-1.41.93v1.31h2.48c.22,0,.3.1.26.32l-.24,1.29c-.04.18-.16.28-.34.28h-2.17v8.78c0,.2-.1.3-.3.3h-1.81c-.2,0-.3-.1-.3-.3v-8.78h-1.35c-.22,0-.32-.1-.32-.3v-1.29c0-.2.1-.3.32-.3h1.35v-1.79c0-1.11.38-1.85,1.07-2.17.72-.32,1.23-.38,2.13-.38.58,0,1.23.06,1.95.18Z"/>
    <path class="st4" d="M390.07,183.61c-.62.74-1.93,1.09-3.89,1.09s-3.28-.36-3.89-1.09c-.62-.74-.93-2.25-.93-4.49s.32-3.75.93-4.49c.62-.73,1.93-1.11,3.89-1.11s3.28.38,3.89,1.11c.64.74.95,2.23.95,4.49s-.32,3.75-.95,4.49ZM386.17,175.61c-1.03,0-1.69.22-1.99.68s-.44,1.39-.44,2.84.14,2.38.44,2.84c.3.44.95.66,1.99.66s1.69-.22,1.99-.66c.3-.46.44-1.39.44-2.84s-.14-2.38-.44-2.84-.95-.68-1.99-.68Z"/>
    <path class="st4" d="M399.38,173.74c.22.06.32.18.32.36v1.21c0,.22-.12.32-.34.3h-1.81c-1.21,0-1.55.2-1.55,1.07v7.63c0,.2-.1.3-.3.3h-1.81c-.2,0-.3-.1-.3-.3v-8.25c0-1.11.42-1.85,1.15-2.17.73-.32,1.31-.38,2.21-.38,1.13,0,1.93.08,2.42.22Z"/>
    <path class="st4" d="M415.65,174.3c.74.64.97,1.73.97,3.62l-.04,6.4c0,.2-.1.3-.28.3h-1.81c-.18,0-.28-.1-.28-.3v-5.64c0-.97-.08-1.69-.22-2.11-.26-.87-.68-.97-1.97-.97-.72,0-1.37.06-1.99.16.2.6.3,1.43.3,2.48l-.04,6.08c0,.2-.08.3-.26.3h-1.83c-.2,0-.3-.1-.3-.3v-6.04c0-1.29-.08-1.95-.48-2.28-.4-.38-.73-.38-1.71-.38h-1.69v8.7c0,.2-.1.3-.3.3h-1.81c-.18,0-.28-.1-.3-.3v-10.15c0-.18.1-.28.3-.32,1.01-.22,2.21-.32,3.54-.32,1.43,0,2.56.2,3.42.6,1.17-.42,2.29-.62,3.34-.62,1.75,0,2.68.16,3.42.79Z"/>
    <path class="st4" d="M427.94,176.78v6.91c0,.3-.14.48-.4.58-1.01.3-2.5.44-4.47.44-1.53,0-2.6-.22-3.24-.64-.64-.44-.95-1.33-.95-2.68,0-2.4,1.17-3.16,3.78-3.16h2.88v-1.03c0-1.11-.66-1.59-2.25-1.59h-3.26c-.24,0-.3-.06-.3-.3v-1.21c0-.24.06-.26.28-.32.93-.18,2.03-.26,3.28-.26,3.4,0,4.65,1.03,4.65,3.26ZM425.54,179.96h-2.74c-1.09,0-1.53.36-1.53,1.33,0,1.11.5,1.41,2.01,1.41.95,0,1.71-.08,2.27-.22v-2.52Z"/>
    <path class="st4" d="M447.49,169.41c.2,0,.3.1.3.3v7.33c0,3.18-.28,4.93-1.23,6.14-.95,1.19-2.34,1.53-4.87,1.53s-3.91-.34-4.87-1.53c-.95-1.21-1.23-2.96-1.23-6.14v-7.33c0-.2.1-.3.3-.3h1.97c.2,0,.3.1.3.3v7.33c0,2.17.24,3.62.7,4.35.48.74,1.43,1.09,2.84,1.09s2.36-.36,2.84-1.09c.48-.73.71-2.19.71-4.35v-7.33c0-.24.06-.3.3-.3h1.95ZM444.45,165.24c.14,0,.2.06.2.2v.14c0,.06-.04.14-.1.24l-3.14,2.68c-.1.08-.18.08-.28,0l-.62-.38c-.1-.06-.12-.16-.06-.28l1.45-2.48c.04-.08.12-.12.24-.12h2.3Z"/>
    <path class="st4" d="M459.26,174.34c.79.66.99,1.77.99,3.89v6.08c0,.2-.1.3-.32.3h-1.79c-.2,0-.3-.1-.3-.3v-5.64c0-1.51-.06-2.22-.48-2.62-.22-.22-.44-.34-.68-.38-.24-.04-.64-.06-1.17-.06h-2.28v8.7c0,.2-.1.3-.3.3h-1.83c-.18,0-.28-.1-.28-.3v-10.15c0-.26.1-.28.28-.32,1.05-.22,2.52-.32,4.45-.32s2.92.12,3.7.81Z"/>
    <path class="st4" d="M465.8,170.48c0,.91-.48,1.37-1.43,1.37s-1.45-.5-1.45-1.37.52-1.37,1.45-1.37,1.43.46,1.43,1.37ZM465.26,173.62c.2,0,.3.1.3.3v10.39c0,.2-.1.3-.3.3h-1.81c-.2,0-.3-.1-.3-.3v-10.39c0-.2.1-.3.3-.3h1.81Z"/>
    <path class="st4" d="M476.17,173.74c.2.04.3.16.3.36v1.21c0,.2-.1.3-.32.3h-3.12c-1.03,0-1.69.22-1.99.68-.28.44-.42,1.37-.42,2.82s.14,2.38.42,2.84c.3.46.95.68,1.99.68h3.12c.22,0,.32.1.32.3v1.21c0,.2-.1.32-.3.36-.85.14-1.91.22-3.14.22-2.01,0-3.3-.36-3.91-1.09-.62-.74-.91-2.23-.91-4.51s.18-3.56.89-4.45c.74-.89,1.87-1.13,3.93-1.13,1.23,0,2.29.08,3.14.22Z"/>
    <path class="st4" d="M487.25,176.78v6.91c0,.3-.14.48-.4.58-1.01.3-2.5.44-4.47.44-1.53,0-2.6-.22-3.24-.64-.64-.44-.95-1.33-.95-2.68,0-2.4,1.17-3.16,3.78-3.16h2.88v-1.03c0-1.11-.66-1.59-2.24-1.59h-3.26c-.24,0-.3-.06-.3-.3v-1.21c0-.24.06-.26.28-.32.93-.18,2.03-.26,3.28-.26,3.4,0,4.65,1.03,4.65,3.26ZM484.84,179.96h-2.74c-1.09,0-1.53.36-1.53,1.33,0,1.11.5,1.41,2.01,1.41.95,0,1.71-.08,2.26-.22v-2.52Z"/>
    <path class="st4" d="M503.63,169.43c.2,0,.3.1.3.3v14.2c0,.24-.12.38-.36.42-1.45.24-2.86.36-4.25.36-2.07,0-3.18-.26-3.95-1.13-.73-.89-.93-2.13-.93-4.45s.3-3.71.89-4.47c.62-.75,1.83-1.13,3.66-1.13,1.03,0,1.89.04,2.54.12v-3.91c0-.2.1-.3.3-.3h1.81ZM501.53,175.61h-2.17c-1.09,0-1.79.22-2.09.66-.3.44-.44,1.39-.44,2.86s.14,2.36.42,2.82c.3.46.97.68,2.05.68.74,0,1.49-.06,2.23-.16v-6.85Z"/>
    <path class="st4" d="M514.97,174.61c.74.85.93,2.05.95,4.29v.6c0,.4-.14.54-.68.54h-6.3c.02,1.05.2,1.75.52,2.09.34.34.97.5,1.95.5h3.4c.2,0,.3.1.3.3v1.23c0,.18-.1.3-.28.34-.97.14-2.15.22-3.56.22-1.93,0-3.2-.36-3.81-1.09-.62-.74-.93-2.25-.93-4.49s.3-3.75.91-4.49c.62-.73,1.91-1.11,3.83-1.11s2.98.24,3.7,1.09ZM509.43,176.16c-.3.36-.46,1.07-.48,2.15h4.55c-.02-1.07-.16-1.79-.46-2.15-.3-.38-.87-.56-1.77-.56s-1.55.18-1.85.56Z"/>
    <path class="st4" d="M532.95,170.24c.85.62,1.27,1.71,1.27,3.28,0,2.07-.56,3.12-1.97,3.42v.06c1.73.24,2.34,1.49,2.34,3.58,0,1.57-.42,2.66-1.23,3.26-.81.58-2.13.87-3.93.87-2.32,0-4.27-.06-5.86-.18-.24-.02-.3-.06-.3-.28v-14.5c0-.22.06-.26.3-.28,1.41-.1,3.2-.16,5.32-.16,1.87,0,3.22.32,4.05.93ZM525.84,171.53v4.51h2.25c1.41,0,2.36-.12,2.84-.38.5-.26.74-.85.74-1.83,0-1.81-.83-2.3-3-2.3h-2.82ZM525.84,177.97v4.51h3.52c1.93,0,2.68-.48,2.68-2.15,0-1.83-.83-2.36-2.64-2.36h-3.56Z"/>
    <path class="st4" d="M545.28,174.61c.74.85.93,2.05.95,4.29v.6c0,.4-.14.54-.68.54h-6.3c.02,1.05.2,1.75.52,2.09.34.34.97.5,1.95.5h3.4c.2,0,.3.1.3.3v1.23c0,.18-.1.3-.28.34-.97.14-2.15.22-3.56.22-1.93,0-3.2-.36-3.81-1.09-.62-.74-.93-2.25-.93-4.49s.3-3.75.91-4.49c.62-.73,1.91-1.11,3.83-1.11s2.98.24,3.7,1.09ZM539.74,176.16c-.3.36-.46,1.07-.48,2.15h4.55c-.02-1.07-.16-1.79-.46-2.15-.3-.38-.87-.56-1.77-.56s-1.55.18-1.85.56Z"/>
    <path class="st4" d="M556.3,173.74c.2.04.3.16.3.36v1.21c0,.2-.1.3-.32.3h-3.12c-1.03,0-1.69.22-1.99.68-.28.44-.42,1.37-.42,2.82s.14,2.38.42,2.84c.3.46.95.68,1.99.68h3.12c.22,0,.32.1.32.3v1.21c0,.2-.1.32-.3.36-.85.14-1.91.22-3.14.22-2.01,0-3.3-.36-3.91-1.09-.62-.74-.91-2.23-.91-4.51s.18-3.56.89-4.45c.74-.89,1.87-1.13,3.93-1.13,1.23,0,2.29.08,3.14.22Z"/>
    <path class="st4" d="M567.39,176.78v6.91c0,.3-.14.48-.4.58-1.01.3-2.5.44-4.47.44-1.53,0-2.6-.22-3.24-.64-.64-.44-.95-1.33-.95-2.68,0-2.4,1.17-3.16,3.78-3.16h2.88v-1.03c0-1.11-.66-1.59-2.25-1.59h-3.26c-.24,0-.3-.06-.3-.3v-1.21c0-.24.06-.26.28-.32.93-.18,2.03-.26,3.28-.26,3.4,0,4.65,1.03,4.65,3.26ZM564.98,179.96h-2.74c-1.09,0-1.53.36-1.53,1.33,0,1.11.5,1.41,2.01,1.41.95,0,1.71-.08,2.27-.22v-2.52Z"/>
    <path class="st4" d="M577.32,173.74c.2.04.3.14.3.32v1.17c0,.2-.1.3-.32.3h-3.66c-.87,0-1.31.3-1.31.87v.24c0,.5.36.89,1.09,1.17l2.6.95c1.61.62,2.03,1.49,2.03,2.9v.26c0,2.15-1.31,2.78-4.11,2.78-1.27,0-2.56-.06-3.87-.18-.2-.02-.3-.12-.3-.3v-1.23c0-.22.1-.32.32-.32h3.85c1.35,0,1.75-.16,1.75-.85v-.2c0-.5-.26-.81-1.13-1.13l-2.62-.99c-1.33-.48-1.99-1.45-1.99-2.92v-.4c0-2.01,1.51-2.66,4.27-2.66,1.13,0,2.17.08,3.1.22Z"/>
    <path class="st4" d="M597.88,168.89c.2,0,.3.1.3.3v7.57c0,2.62-.24,4.27-.81,5.54-.93,1.87-2.58,2.36-5.82,2.4-2.21,0-3.58-.3-4.63-.95-1.55-1.13-1.99-3.12-2.01-6.99v-7.57c0-.2.1-.3.3-.3h3.58c.2,0,.3.1.3.3v7.57c0,1.73.16,2.88.5,3.46s.99.85,1.97.85,1.63-.28,1.97-.85.5-1.73.5-3.46v-7.57c0-.2.1-.3.3-.3h3.58Z"/>
    <path class="st4" d="M612.29,170.64c1.03,1.25,1.55,3.3,1.55,6.14s-.52,4.83-1.55,6.08c-1.01,1.23-2.74,1.85-5.15,1.85-2.07,0-4.07-.1-6.04-.28-.24-.04-.3-.02-.3-.22v-14.9c0-.16.1-.24.3-.26,1.97-.18,3.97-.28,6.04-.28,2.4,0,4.13.62,5.15,1.87ZM604.98,172.41v8.66h2.17c1.81,0,2.46-1.25,2.46-4.29s-.66-4.37-2.46-4.37h-2.17Z"/>
    <path class="st4" d="M627.01,169.19c.42.1.58.26.58.68v2.22c0,.22-.1.32-.3.32h-4.93c-1.01,0-1.69.3-2.01.89-.3.58-.46,1.73-.46,3.44s.16,2.82.48,3.44c.32.6.97.89,1.99.89h1.97v-3.83c0-.22.1-.34.3-.34h3.3c.2,0,.3.12.3.34v5.36c0,.26-.04.46-.12.6-.28.42-.95.77-2.01,1.07s-2.28.44-3.73.44c-2.62,0-4.39-.56-5.33-1.65-.91-1.11-1.37-3.22-1.37-6.32s.34-5.03,1.37-6.3c1.05-1.27,2.62-1.67,5.33-1.67,2.12,0,3.67.14,4.65.42Z"/>
  </g>
</svg>